<?xml version="1.0" encoding="utf-8"?>
<!-- Generator: Adobe Illustrator 22.0.0, SVG Export Plug-In . SVG Version: 6.00 Build 0)  -->
<svg version="1.1" id="Layer_1" xmlns="http://www.w3.org/2000/svg" xmlns:xlink="http://www.w3.org/1999/xlink" x="0px" y="0px"
	 viewBox="0 0 480 472.8" style="enable-background:new 0 0 480 472.8;" xml:space="preserve">
<style type="text/css">
	.st0{fill:url(#SVGID_1_);}
	.st1{fill:url(#SVGID_2_);}
	.st2{fill:url(#SVGID_3_);}
	.st3{fill:url(#SVGID_4_);}
	.st4{fill:url(#SVGID_5_);}
	.st5{fill:url(#SVGID_6_);}
	.st6{fill:url(#SVGID_7_);}
	.st7{fill:url(#SVGID_8_);}
	.st8{fill:url(#SVGID_9_);}
	.st9{fill:url(#SVGID_10_);}
	.st10{fill:url(#SVGID_11_);}
	.st11{fill:url(#SVGID_12_);}
	.st12{fill:url(#SVGID_13_);}
	.st13{fill:url(#SVGID_14_);}
	.st14{fill:url(#SVGID_15_);}
	.st15{fill:url(#SVGID_16_);}
	.st16{fill:url(#SVGID_17_);}
	.st17{fill:url(#SVGID_18_);}
	.st18{fill:url(#SVGID_19_);}
</style>
<g id="Expand">
	<linearGradient id="SVGID_1_" gradientUnits="userSpaceOnUse" x1="0" y1="380.8" x2="479.9983" y2="380.8">
		<stop  offset="0" style="stop-color:#FFE512"/>
		<stop  offset="1" style="stop-color:#FFA221"/>
	</linearGradient>
	<path class="st0" d="M448,456.8h-16v-72h24v-16h-24v-16h40c4.4,0,8-3.6,8-8c0-2.1-0.8-4.2-2.3-5.7l-48-48c-1.5-1.5-3.5-2.3-5.7-2.3
		H56c-2.1,0-4.2,0.8-5.7,2.3l-48,48c-3.1,3.1-3.1,8.2,0,11.3c1.5,1.5,3.5,2.3,5.7,2.3h32v104H0v16h448V456.8z M416,456.8h-96v-72h96
		V456.8z M144,328.8v128h-16V332.1l24-24l42.3,42.3c1.5,1.5,3.5,2.3,5.7,2.3h64v16h-32v16h32v72H160v-128H144z M104,352.8
		c2.1,0,4.2-0.8,5.7-2.3l2.3-2.3v108.7H88v-104H104z M304,352.8v16h-24v-16H304z M280,384.8h24v72h-24V384.8z M416,368.8h-96v-16h96
		V368.8z M420.7,304.8l32,32H203.3l-32-32H420.7z M59.3,304.8h73.4l-32,32H27.3L59.3,304.8z M56,352.8h16v104H56V352.8z"/>
	<linearGradient id="SVGID_2_" gradientUnits="userSpaceOnUse" x1="200" y1="376.8" x2="216" y2="376.8">
		<stop  offset="0" style="stop-color:#FFE512"/>
		<stop  offset="1" style="stop-color:#FFA221"/>
	</linearGradient>
	<rect x="200" y="368.8" class="st1" width="16" height="16"/>
	<linearGradient id="SVGID_3_" gradientUnits="userSpaceOnUse" x1="464" y1="464.8" x2="480" y2="464.8">
		<stop  offset="0" style="stop-color:#FFE512"/>
		<stop  offset="1" style="stop-color:#FFA221"/>
	</linearGradient>
	<rect x="464" y="456.8" class="st2" width="16" height="16"/>
	<linearGradient id="SVGID_4_" gradientUnits="userSpaceOnUse" x1="48.4" y1="184.764" x2="127.6" y2="184.764">
		<stop  offset="0" style="stop-color:#FFE512"/>
		<stop  offset="1" style="stop-color:#FFA221"/>
	</linearGradient>
	<path class="st3" d="M58.9,189.6c6.1,6.1,15.2,8.3,23.4,5.5l16.6-5.5c3.6-1.2,7.4,0.7,8.6,4.3c0.8,2.5,0.2,5.2-1.7,7l-1.7,1.7
		c-2.7,2.7-7,2.7-9.7,0l-0.8-0.8l-11.3,11.3l0.8,0.8c7,7.1,17.9,8.7,26.6,4l6.5,6.5l11.3-11.3l-6.5-6.5c5.9-11.1,1.6-24.9-9.5-30.7
		c-5.5-2.9-12-3.4-17.8-1.4l-16.6,5.5c-3.6,1.2-7.4-0.7-8.6-4.3c-0.8-2.5-0.2-5.2,1.7-7l1.7-1.7c2.7-2.7,7-2.7,9.7,0l0.8,0.8
		l11.3-11.3l-0.8-0.8c-7.1-7-17.8-8.6-26.6-4l-6.5-6.5l-11.3,11.3l6.5,6.5C50.3,171.8,51.9,182.5,58.9,189.6z"/>
	<linearGradient id="SVGID_5_" gradientUnits="userSpaceOnUse" x1="7.9997" y1="184.675" x2="168.2489" y2="184.675">
		<stop  offset="0" style="stop-color:#FFE512"/>
		<stop  offset="1" style="stop-color:#FFA221"/>
	</linearGradient>
	<path class="st4" d="M8,184.8c0,44.2,35.8,80,80,80c21.2,0,41.6-8.4,56.6-23.4c31.4-31.1,31.6-81.8,0.5-113.1s-81.8-31.6-113.1-0.5
		c-0.2,0.2-0.3,0.3-0.5,0.5C16.4,143.2,7.9,163.6,8,184.8z M88,120.8c35.3,0,64,28.7,64,64c0,35.3-28.7,64-64,64s-64-28.7-64-64
		c0-17,6.7-33.3,18.7-45.3C54.7,127.5,71,120.8,88,120.8z"/>
	<linearGradient id="SVGID_6_" gradientUnits="userSpaceOnUse" x1="360.4079" y1="184.8" x2="439.56" y2="184.8">
		<stop  offset="0" style="stop-color:#FFE512"/>
		<stop  offset="1" style="stop-color:#FFA221"/>
	</linearGradient>
	<path class="st5" d="M428.3,145.2l-6.5,6.5c-11.1-5.9-24.9-1.6-30.7,9.5c-2.9,5.5-3.4,12-1.4,17.8l5.5,16.6
		c1.2,3.6-0.7,7.4-4.3,8.6c-2.5,0.8-5.2,0.2-7-1.7l-1.7-1.7c-2.7-2.7-2.7-7,0-9.7l0.8-0.8l-11.3-11.3l-0.8,0.8
		c-7,7.1-8.6,17.8-4,26.6l-6.5,6.5l11.3,11.3l6.5-6.5c11.1,5.9,24.9,1.6,30.7-9.5c2.9-5.5,3.4-12,1.4-17.8l-5.6-16.6
		c-1.2-3.6,0.7-7.4,4.3-8.6c2.5-0.8,5.2-0.2,7,1.7l1.7,1.7c2.7,2.7,2.7,7,0,9.7l-0.8,0.8l11.3,11.3l0.8-0.8c7-7.1,8.6-17.8,4-26.6
		l6.5-6.5L428.3,145.2z"/>
	<linearGradient id="SVGID_7_" gradientUnits="userSpaceOnUse" x1="319.9989" y1="184.7999" x2="479.9989" y2="184.7999">
		<stop  offset="0" style="stop-color:#FFE512"/>
		<stop  offset="1" style="stop-color:#FFA221"/>
	</linearGradient>
	<path class="st6" d="M400,104.8c-44.2,0-80,35.8-80,80s35.8,80,80,80s80-35.8,80-80c0-21.2-8.4-41.6-23.4-56.6
		C441.6,113.2,421.2,104.7,400,104.8z M445.3,230.1c-25,25-65.5,25-90.5,0s-25-65.5,0-90.5s65.5-25,90.5,0
		c12,12,18.7,28.3,18.7,45.3C464,201.8,457.3,218.1,445.3,230.1z"/>
	<linearGradient id="SVGID_8_" gradientUnits="userSpaceOnUse" x1="223.9995" y1="80.8" x2="272.0005" y2="80.8">
		<stop  offset="0" style="stop-color:#FFE512"/>
		<stop  offset="1" style="stop-color:#FFA221"/>
	</linearGradient>
	<path class="st7" d="M256,42v-9.2h-16V42c-12,3.7-18.7,16.5-15,28.5c1.8,5.9,6,10.8,11.6,13.6l15.6,7.8c3.4,1.7,4.8,5.8,3.1,9.2
		c-1.2,2.3-3.5,3.8-6.1,3.8h-2.3c-3.8,0-6.8-3.1-6.8-6.8v-1.2h-16V98c0,9.9,6.5,18.7,16,21.7v9.2h16v-9.2c12-3.7,18.7-16.5,15-28.5
		c-1.8-5.9-6-10.8-11.6-13.6l-15.6-7.8c-3.4-1.7-4.8-5.8-3.1-9.2c1.2-2.3,3.5-3.8,6.1-3.8h2.3c3.8,0,6.8,3.1,6.8,6.8v1.2h16v-1.2
		C272,53.7,265.5,44.9,256,42z"/>
	<linearGradient id="SVGID_9_" gradientUnits="userSpaceOnUse" x1="168" y1="80.8" x2="328" y2="80.8">
		<stop  offset="0" style="stop-color:#FFE512"/>
		<stop  offset="1" style="stop-color:#FFA221"/>
	</linearGradient>
	<path class="st8" d="M328,80.8c0-44.2-35.8-80-80-80s-80,35.8-80,80s35.8,80,80,80C292.2,160.8,328,125,328,80.8z M248,144.8
		c-35.3,0-64-28.7-64-64s28.7-64,64-64s64,28.7,64,64C312,116.1,283.3,144.8,248,144.8z"/>
	<linearGradient id="SVGID_10_" gradientUnits="userSpaceOnUse" x1="232" y1="224.8" x2="248" y2="224.8">
		<stop  offset="0" style="stop-color:#FFE512"/>
		<stop  offset="1" style="stop-color:#FFA221"/>
	</linearGradient>
	<rect x="232" y="176.8" class="st9" width="16" height="96"/>
	<linearGradient id="SVGID_11_" gradientUnits="userSpaceOnUse" x1="264" y1="240.8" x2="296" y2="240.8">
		<stop  offset="0" style="stop-color:#FFE512"/>
		<stop  offset="1" style="stop-color:#FFA221"/>
	</linearGradient>
	<path class="st10" d="M264,272.8h16v-32c0-8.8,7.2-16,16-16v-16c-17.7,0-32,14.3-32,32V272.8z"/>
	<linearGradient id="SVGID_12_" gradientUnits="userSpaceOnUse" x1="184" y1="232.8" x2="216" y2="232.8">
		<stop  offset="0" style="stop-color:#FFE512"/>
		<stop  offset="1" style="stop-color:#FFA221"/>
	</linearGradient>
	<path class="st11" d="M216,272.8v-48c0-17.7-14.3-32-32-32v16c8.8,0,16,7.2,16,16v48H216z"/>
	<linearGradient id="SVGID_13_" gradientUnits="userSpaceOnUse" x1="135.9994" y1="44.708" x2="181.536" y2="44.708">
		<stop  offset="0" style="stop-color:#FFE512"/>
		<stop  offset="1" style="stop-color:#FFA221"/>
	</linearGradient>
	<path class="st12" d="M170.5,0c-22.1,21.1-34.6,50.3-34.5,80.8c0,2.9,0.1,5.8,0.3,8.6l16-1.2c-0.2-2.4-0.3-4.9-0.3-7.4
		c-0.1-26.2,10.6-51.2,29.5-69.3L170.5,0z"/>
	<linearGradient id="SVGID_14_" gradientUnits="userSpaceOnUse" x1="16" y1="24.8" x2="32" y2="24.8">
		<stop  offset="0" style="stop-color:#FFE512"/>
		<stop  offset="1" style="stop-color:#FFA221"/>
	</linearGradient>
	<rect x="16" y="16.8" class="st13" width="16" height="16"/>
	<linearGradient id="SVGID_15_" gradientUnits="userSpaceOnUse" x1="72" y1="64.8" x2="88" y2="64.8">
		<stop  offset="0" style="stop-color:#FFE512"/>
		<stop  offset="1" style="stop-color:#FFA221"/>
	</linearGradient>
	<rect x="72" y="56.8" class="st14" width="16" height="16"/>
	<linearGradient id="SVGID_16_" gradientUnits="userSpaceOnUse" x1="8" y1="280.8" x2="24" y2="280.8">
		<stop  offset="0" style="stop-color:#FFE512"/>
		<stop  offset="1" style="stop-color:#FFA221"/>
	</linearGradient>
	<rect x="8" y="272.8" class="st15" width="16" height="16"/>
	<linearGradient id="SVGID_17_" gradientUnits="userSpaceOnUse" x1="464" y1="280.8" x2="480" y2="280.8">
		<stop  offset="0" style="stop-color:#FFE512"/>
		<stop  offset="1" style="stop-color:#FFA221"/>
	</linearGradient>
	<rect x="464" y="272.8" class="st16" width="16" height="16"/>
	<linearGradient id="SVGID_18_" gradientUnits="userSpaceOnUse" x1="352" y1="16.8" x2="368" y2="16.8">
		<stop  offset="0" style="stop-color:#FFE512"/>
		<stop  offset="1" style="stop-color:#FFA221"/>
	</linearGradient>
	<rect x="352" y="8.8" class="st17" width="16" height="16"/>
	<linearGradient id="SVGID_19_" gradientUnits="userSpaceOnUse" x1="432" y1="72.8" x2="448" y2="72.8">
		<stop  offset="0" style="stop-color:#FFE512"/>
		<stop  offset="1" style="stop-color:#FFA221"/>
	</linearGradient>
	<rect x="432" y="64.8" class="st18" width="16" height="16"/>
</g>
</svg>
