<?xml version="1.0" encoding="utf-8"?>
<!-- Generator: Adobe Illustrator 22.0.0, SVG Export Plug-In . SVG Version: 6.00 Build 0)  -->
<svg version="1.1" id="Layer_1" xmlns="http://www.w3.org/2000/svg" xmlns:xlink="http://www.w3.org/1999/xlink" x="0px" y="0px"
	 viewBox="0 0 438 512" style="enable-background:new 0 0 438 512;" xml:space="preserve">
<style type="text/css">
	.st0{fill:url(#SVGID_1_);}
	.st1{fill:url(#SVGID_2_);}
	.st2{fill:url(#SVGID_3_);}
	.st3{fill:url(#SVGID_4_);}
	.st4{fill:url(#SVGID_5_);}
	.st5{fill:url(#SVGID_6_);}
	.st6{fill:url(#SVGID_7_);}
	.st7{fill:url(#SVGID_8_);}
	.st8{fill:url(#SVGID_9_);}
	.st9{fill:url(#SVGID_10_);}
</style>
<g>
	<g>
		<g>
			<linearGradient id="SVGID_1_" gradientUnits="userSpaceOnUse" x1="276.03" y1="122.0682" x2="369.981" y2="122.0682">
				<stop  offset="0" style="stop-color:#FFE512"/>
				<stop  offset="1" style="stop-color:#FFA221"/>
			</linearGradient>
			<path class="st0" d="M370,67V10c0-4-2.4-7.6-6-9.2c-3.7-1.6-7.9-0.8-10.8,1.9L323,31.2L292.9,2.7c-2.9-2.7-7.2-3.5-10.8-1.9
				c-3.7,1.6-6,5.2-6,9.2v57c0,2.7,1.1,5.4,3.1,7.3l23.8,22.5c-15.3,7.5-25.9,23.2-25.9,41.4v60c0,25.4,20.6,46,46,46s46-20.6,46-46
				v-60c0-18.2-10.6-33.9-25.9-41.4l23.8-22.5C368.9,72.4,370,69.7,370,67z M296,62.7V33.2l17,16.1v29.5L296,62.7z M323,224.1
				c-12.2,0-22.5-8.5-25.3-19.9h50.5C345.5,215.6,335.2,224.1,323,224.1z M349,184.2h-52v-34h52V184.2z M347.8,130.2h-49.5
				c3.4-10.5,13.2-18.1,24.8-18.1C334.6,112.1,344.4,119.7,347.8,130.2z M350,62.7l-17,16.1V49.3l17-16.1V62.7z"/>
		</g>
	</g>
	<g>
		<g>
			<linearGradient id="SVGID_2_" gradientUnits="userSpaceOnUse" x1="173.999" y1="94.9995" x2="264.499" y2="94.9995">
				<stop  offset="0" style="stop-color:#FFE512"/>
				<stop  offset="1" style="stop-color:#FFA221"/>
			</linearGradient>
			<path class="st1" d="M254.5,85H184c-5.5,0-10,4.5-10,10s4.5,10,10,10h70.5c5.5,0,10-4.5,10-10S260,85,254.5,85z"/>
		</g>
	</g>
	<g>
		<g>
			<linearGradient id="SVGID_3_" gradientUnits="userSpaceOnUse" x1="0" y1="298.5005" x2="438.001" y2="298.5005">
				<stop  offset="0" style="stop-color:#FFE512"/>
				<stop  offset="1" style="stop-color:#FFA221"/>
			</linearGradient>
			<path class="st2" d="M396,85h-25c-5.5,0-10,4.5-10,10s4.5,10,10,10h25c12.1,0,22,9.9,22,22v213c-0.3,0-0.6,0-0.9,0H171.9
				c5.1-7.4,8.1-16.4,8.1-26v-60c0-18.2-10.6-33.9-25.9-41.4l23.8-22.5c2-1.9,3.1-4.5,3.1-7.3v-57c0-4-2.4-7.6-6-9.2
				s-7.9-0.8-10.8,1.9L134,147.1l-30.1-28.5c-2.9-2.7-7.2-3.5-10.8-1.9c-3.7,1.6-6,5.2-6,9.2v57c0,2.7,1.1,5.4,3.1,7.3l23.8,22.5
				C98.6,220.1,88,235.8,88,254v60c0,9.6,3,18.6,8.1,26H20V127c0-12.1,9.9-22,22-22h45c5.5,0,10-4.5,10-10s-4.5-10-10-10H42
				c-23.2,0-42,18.8-42,42v249c0,23.2,18.8,42,42,42h127v34h-39c-5.5,0-10,4.5-10,10v40c0,5.5,4.5,10,10,10h178c5.5,0,10-4.5,10-10
				v-40c0-5.5-4.5-10-10-10h-39v-34h127c23.2,0,42-18.8,42-42V127C438,103.8,419.2,85,396,85z M144,165.1l17-16.1v29.5l-17,16.1
				V165.1z M107,178.5v-29.5l17,16.1v29.5L107,178.5z M134,228c11.6,0,21.4,7.6,24.8,18.1h-49.5C112.6,235.6,122.4,228,134,228z
				 M108,266.1h52v34h-52V266.1z M159.3,320.1c-2.8,11.4-13,19.9-25.3,19.9s-22.5-8.5-25.3-19.9H159.3z M298.1,472v20H140v-20H298.1
				z M189,452v-34h60v34H189z M418,376c0,12.1-9.9,22-22,22H42c-12.1,0-22-9.9-22-22v-16h397.1c0.3,0,0.6,0,0.9,0V376z"/>
		</g>
	</g>
	<g>
		<g>
			<linearGradient id="SVGID_4_" gradientUnits="userSpaceOnUse" x1="236" y1="170.616" x2="256" y2="170.616">
				<stop  offset="0" style="stop-color:#FFE512"/>
				<stop  offset="1" style="stop-color:#FFA221"/>
			</linearGradient>
			<path class="st3" d="M246,137c-5.5,0-10,4.5-10,10v47.2c0,5.5,4.5,10,10,10s10-4.5,10-10V147C256,141.5,251.5,137,246,137z"/>
		</g>
	</g>
	<g>
		<g>
			<linearGradient id="SVGID_5_" gradientUnits="userSpaceOnUse" x1="235.999" y1="229.0014" x2="255.999" y2="229.0014">
				<stop  offset="0" style="stop-color:#FFE512"/>
				<stop  offset="1" style="stop-color:#FFA221"/>
			</linearGradient>
			<path class="st4" d="M253.1,221.9c-1.9-1.9-4.4-2.9-7.1-2.9s-5.2,1.1-7.1,2.9c-1.9,1.9-2.9,4.4-2.9,7.1s1.1,5.2,2.9,7.1
				c1.9,1.9,4.4,2.9,7.1,2.9s5.2-1.1,7.1-2.9c1.9-1.9,2.9-4.4,2.9-7.1S254.9,223.8,253.1,221.9z"/>
		</g>
	</g>
	<g>
		<g>
			<linearGradient id="SVGID_6_" gradientUnits="userSpaceOnUse" x1="235.999" y1="267.0015" x2="255.999" y2="267.0015">
				<stop  offset="0" style="stop-color:#FFE512"/>
				<stop  offset="1" style="stop-color:#FFA221"/>
			</linearGradient>
			<path class="st5" d="M253.1,259.9c-1.9-1.9-4.4-2.9-7.1-2.9s-5.2,1.1-7.1,2.9c-1.9,1.9-2.9,4.4-2.9,7.1s1.1,5.2,2.9,7.1
				c1.9,1.9,4.4,2.9,7.1,2.9s5.2-1.1,7.1-2.9c1.9-1.9,2.9-4.4,2.9-7.1S254.9,261.8,253.1,259.9z"/>
		</g>
	</g>
	<g>
		<g>
			<linearGradient id="SVGID_7_" gradientUnits="userSpaceOnUse" x1="236" y1="305.0015" x2="256" y2="305.0015">
				<stop  offset="0" style="stop-color:#FFE512"/>
				<stop  offset="1" style="stop-color:#FFA221"/>
			</linearGradient>
			<path class="st6" d="M253.1,297.9c-1.9-1.9-4.4-2.9-7.1-2.9c-2.6,0-5.2,1.1-7.1,2.9c-1.9,1.9-2.9,4.4-2.9,7.1s1.1,5.2,2.9,7.1
				c1.9,1.9,4.4,2.9,7.1,2.9s5.2-1.1,7.1-2.9c1.9-1.9,2.9-4.4,2.9-7.1S254.9,299.8,253.1,297.9z"/>
		</g>
	</g>
	<g>
		<g>
			<linearGradient id="SVGID_8_" gradientUnits="userSpaceOnUse" x1="124.02" y1="10.0014" x2="144.02" y2="10.0014">
				<stop  offset="0" style="stop-color:#FFE512"/>
				<stop  offset="1" style="stop-color:#FFA221"/>
			</linearGradient>
			<path class="st7" d="M141.1,2.9C139.2,1.1,136.6,0,134,0s-5.2,1.1-7.1,2.9c-1.9,1.9-2.9,4.4-2.9,7.1s1.1,5.2,2.9,7.1
				c1.9,1.9,4.4,2.9,7.1,2.9c2.6,0,5.2-1.1,7.1-2.9c1.9-1.9,2.9-4.4,2.9-7.1S142.9,4.8,141.1,2.9z"/>
		</g>
	</g>
	<g>
		<g>
			<linearGradient id="SVGID_9_" gradientUnits="userSpaceOnUse" x1="124.02" y1="52.5014" x2="144.02" y2="52.5014">
				<stop  offset="0" style="stop-color:#FFE512"/>
				<stop  offset="1" style="stop-color:#FFA221"/>
			</linearGradient>
			<path class="st8" d="M141.1,45.4c-1.9-1.9-4.4-2.9-7.1-2.9s-5.2,1.1-7.1,2.9c-1.9,1.9-2.9,4.4-2.9,7.1c0,2.6,1.1,5.2,2.9,7.1
				c1.9,1.9,4.4,2.9,7.1,2.9c2.6,0,5.2-1.1,7.1-2.9c1.9-1.9,2.9-4.4,2.9-7.1S142.9,47.3,141.1,45.4z"/>
		</g>
	</g>
	<g>
		<g>
			<linearGradient id="SVGID_10_" gradientUnits="userSpaceOnUse" x1="124.02" y1="95.0014" x2="144.02" y2="95.0014">
				<stop  offset="0" style="stop-color:#FFE512"/>
				<stop  offset="1" style="stop-color:#FFA221"/>
			</linearGradient>
			<path class="st9" d="M141.1,87.9c-1.9-1.9-4.4-2.9-7.1-2.9c-2.6,0-5.2,1.1-7.1,2.9c-1.9,1.9-2.9,4.4-2.9,7.1
				c0,2.6,1.1,5.2,2.9,7.1c1.9,1.9,4.4,2.9,7.1,2.9c2.6,0,5.2-1.1,7.1-2.9c1.9-1.9,2.9-4.4,2.9-7.1C144,92.4,142.9,89.8,141.1,87.9z
				"/>
		</g>
	</g>
</g>
</svg>
