<?xml version="1.0" encoding="utf-8"?>
<!-- Generator: Adobe Illustrator 22.0.0, SVG Export Plug-In . SVG Version: 6.00 Build 0)  -->
<svg version="1.1" id="Layer_1" xmlns="http://www.w3.org/2000/svg" xmlns:xlink="http://www.w3.org/1999/xlink" x="0px" y="0px"
	 viewBox="0 0 512 512" style="enable-background:new 0 0 512 512;" xml:space="preserve">
<style type="text/css">
	.st0{fill:url(#SVGID_1_);}
	.st1{fill:url(#SVGID_2_);}
	.st2{fill:url(#SVGID_3_);}
	.st3{fill:url(#SVGID_4_);}
	.st4{fill:url(#SVGID_5_);}
	.st5{fill:url(#SVGID_6_);}
	.st6{fill:url(#SVGID_7_);}
	.st7{fill:url(#SVGID_8_);}
</style>
<g>
	<linearGradient id="SVGID_1_" gradientUnits="userSpaceOnUse" x1="0" y1="256" x2="512" y2="256">
		<stop  offset="0" style="stop-color:#FFE512"/>
		<stop  offset="1" style="stop-color:#FFA221"/>
	</linearGradient>
	<path class="st0" d="M482,54h-24V30c0-16.5-13.5-30-30-30H30C13.5,0,0,13.5,0,30v398c0,16.5,13.5,30,30,30h24v24
		c0,16.5,13.5,30,30,30h398c16.5,0,30-13.5,30-30V84C512,67.5,498.5,54,482,54z M482,74c5.5,0,10,4.5,10,10v58h-34V74H482z M30,20
		h398c5.5,0,10,4.5,10,10v58H20V30C20,24.5,24.5,20,30,20z M482,492H84c-5.5,0-10-4.5-10-10v-24h115c5.5,0,10-4.5,10-10
		s-4.5-10-10-10H30c-5.5,0-10-4.5-10-10V108h418v320c0,5.5-4.5,10-10,10H269c-5.5,0-10,4.5-10,10s4.5,10,10,10h159
		c16.5,0,30-13.5,30-30V162h34v320C492,487.5,487.5,492,482,492z"/>
	<linearGradient id="SVGID_2_" gradientUnits="userSpaceOnUse" x1="60" y1="54" x2="80" y2="54">
		<stop  offset="0" style="stop-color:#FFE512"/>
		<stop  offset="1" style="stop-color:#FFA221"/>
	</linearGradient>
	<path class="st1" d="M70,64c2.6,0,5.2-1.1,7.1-2.9S80,56.6,80,54s-1.1-5.2-2.9-7.1S72.6,44,70,44s-5.2,1.1-7.1,2.9S60,51.4,60,54
		s1.1,5.2,2.9,7.1S67.4,64,70,64z"/>
	<linearGradient id="SVGID_3_" gradientUnits="userSpaceOnUse" x1="113.6719" y1="54" x2="133.6719" y2="54">
		<stop  offset="0" style="stop-color:#FFE512"/>
		<stop  offset="1" style="stop-color:#FFA221"/>
	</linearGradient>
	<path class="st2" d="M123.7,64c2.6,0,5.2-1.1,7.1-2.9c1.9-1.9,2.9-4.4,2.9-7.1s-1.1-5.2-2.9-7.1c-1.9-1.9-4.4-2.9-7.1-2.9
		c-2.6,0-5.2,1.1-7.1,2.9c-1.9,1.9-2.9,4.4-2.9,7.1s1.1,5.2,2.9,7.1C118.5,62.9,121,64,123.7,64z"/>
	<linearGradient id="SVGID_4_" gradientUnits="userSpaceOnUse" x1="167.3281" y1="54" x2="187.3281" y2="54">
		<stop  offset="0" style="stop-color:#FFE512"/>
		<stop  offset="1" style="stop-color:#FFA221"/>
	</linearGradient>
	<path class="st3" d="M177.3,64c2.6,0,5.2-1.1,7.1-2.9c1.9-1.9,2.9-4.4,2.9-7.1s-1.1-5.2-2.9-7.1c-1.9-1.9-4.4-2.9-7.1-2.9
		c-2.6,0-5.2,1.1-7.1,2.9c-1.9,1.9-2.9,4.4-2.9,7.1s1.1,5.2,2.9,7.1C172.1,62.9,174.7,64,177.3,64z"/>
	<linearGradient id="SVGID_5_" gradientUnits="userSpaceOnUse" x1="242.5" y1="54" x2="404" y2="54">
		<stop  offset="0" style="stop-color:#FFE512"/>
		<stop  offset="1" style="stop-color:#FFA221"/>
	</linearGradient>
	<path class="st4" d="M252.5,64H394c5.5,0,10-4.5,10-10s-4.5-10-10-10H252.5c-5.5,0-10,4.5-10,10S247,64,252.5,64z"/>
	<linearGradient id="SVGID_6_" gradientUnits="userSpaceOnUse" x1="92" y1="273" x2="366" y2="273">
		<stop  offset="0" style="stop-color:#FFE512"/>
		<stop  offset="1" style="stop-color:#FFA221"/>
	</linearGradient>
	<path class="st5" d="M366,273c0-75.5-61.5-137-137-137S92,197.5,92,273s61.5,137,137,137S366,348.5,366,273z M112,273
		c0-64.5,52.5-117,117-117s117,52.5,117,117s-52.5,117-117,117S112,337.5,112,273z"/>
	<linearGradient id="SVGID_7_" gradientUnits="userSpaceOnUse" x1="136.9424" y1="273.0024" x2="297.0547" y2="273.0024">
		<stop  offset="0" style="stop-color:#FFE512"/>
		<stop  offset="1" style="stop-color:#FFA221"/>
	</linearGradient>
	<path class="st6" d="M294.1,338.1c3.9-3.9,3.9-10.2,0-14.1l-28.3-28.3c-1.9-1.9-4.4-2.9-7.1-2.9s-5.2,1.1-7.1,2.9
		c-6.1,6.1-14.1,9.4-22.7,9.4s-16.6-3.3-22.7-9.4c-12.5-12.5-12.5-32.9,0-45.4c6.1-6.1,14.1-9.4,22.7-9.4s16.6,3.3,22.7,9.4
		c1.9,1.9,4.4,2.9,7.1,2.9s5.2-1.1,7.1-2.9l28.3-28.3c3.9-3.9,3.9-10.2,0-14.1c-35.9-35.9-94.3-35.9-130.3,0s-35.9,94.3,0,130.3
		c17.4,17.4,40.5,26.9,65.1,26.9C253.6,365.1,276.8,355.5,294.1,338.1z M178,222c14.1-14.1,32.5-21.1,51-21.1
		c15.3,0,30.6,4.8,43.4,14.5l-14.3,14.3c-8.5-5.8-18.6-8.8-29.1-8.8c-13.9,0-27,5.4-36.8,15.2c-20.3,20.3-20.3,53.4,0,73.7
		c9.8,9.8,22.9,15.2,36.8,15.2c10.5,0,20.6-3.1,29.1-8.8l14.3,14.3c-12.4,9.4-27.5,14.5-43.4,14.5c-19.3,0-37.4-7.5-51-21.1
		C149.9,295.9,149.9,250.1,178,222z"/>
	<linearGradient id="SVGID_8_" gradientUnits="userSpaceOnUse" x1="219" y1="448" x2="239" y2="448">
		<stop  offset="0" style="stop-color:#FFE512"/>
		<stop  offset="1" style="stop-color:#FFA221"/>
	</linearGradient>
	<path class="st7" d="M229,438c-2.6,0-5.2,1.1-7.1,2.9s-2.9,4.4-2.9,7.1s1.1,5.2,2.9,7.1s4.4,2.9,7.1,2.9s5.2-1.1,7.1-2.9
		s2.9-4.4,2.9-7.1s-1.1-5.2-2.9-7.1S231.6,438,229,438z"/>
</g>
</svg>
