<?xml version="1.0" encoding="utf-8"?>
<!-- Generator: Adobe Illustrator 22.0.0, SVG Export Plug-In . SVG Version: 6.00 Build 0)  -->
<svg version="1.1" id="Layer_1" xmlns="http://www.w3.org/2000/svg" xmlns:xlink="http://www.w3.org/1999/xlink" x="0px" y="0px"
	 viewBox="0 0 512 512" style="enable-background:new 0 0 512 512;" xml:space="preserve">
<style type="text/css">
	.st0{fill:url(#SVGID_1_);}
	.st1{fill:url(#SVGID_2_);}
	.st2{fill:url(#SVGID_3_);}
	.st3{fill:url(#SVGID_4_);}
</style>
<g>
	<g>
		<g>
			<linearGradient id="SVGID_1_" gradientUnits="userSpaceOnUse" x1="6.0645" y1="256" x2="505.9355" y2="256">
				<stop  offset="0" style="stop-color:#FFE512"/>
				<stop  offset="1" style="stop-color:#FFA221"/>
			</linearGradient>
			<path class="st0" d="M481.6,419.7H367.9v-13c0-17-13.8-30.8-30.8-30.8h-41.4v-44.7c14.1-0.4,25.5-11.9,25.5-26.1
				s-11.4-25.8-25.5-26.1v-13.3c0-22.3,10.8-43.5,28.9-56.9c25.5-18.8,42.3-47.5,46.2-78.8c0.5-4.1-2.4-7.9-6.5-8.4
				c-4.1-0.5-7.9,2.4-8.4,6.5c-3.4,27.2-18,52.2-40.2,68.6c-21.9,16.2-35,42-35,69V279h-49.5v-13.2c0-26.9-13.2-52.8-35.3-69.2
				c-25.8-19.2-41.1-49.9-40.7-82c0.3-26.7,11.1-51.8,30.4-70.7C205,25,230.3,14.7,257,15c47.6,0.5,88.7,34.7,97.8,81.3
				c0.8,4.1,4.7,6.7,8.8,5.9c4.1-0.8,6.7-4.7,5.9-8.8C359.1,39.9,311.9,0.6,257.2,0C193.5-0.7,141,50.7,140.3,114.4
				c-0.4,36.9,17.1,72.2,46.8,94.2c18.3,13.6,29.2,34.9,29.2,57.1V279c-14.1,0.4-25.5,11.9-25.5,26.1s11.4,25.8,25.5,26.1v44.7
				h-41.4c-17,0-30.8,13.8-30.8,30.8v13h-38.1c-4.1,0-7.5,3.4-7.5,7.5s3.4,7.5,7.5,7.5h375.5c5.1,0,9.3,4.2,9.3,9.3v0.6H369
				c-4.1,0-7.5,3.4-7.5,7.5s3.4,7.5,7.5,7.5h121.9v8.5H21.1V444c0-5.1,4.2-9.3,9.3-9.3h41.5c4.1,0,7.5-3.4,7.5-7.5s-3.4-7.5-7.5-7.5
				H30.4C17,419.7,6.1,430.6,6.1,444v31.6c0,4.1,3.4,7.5,7.5,7.5h19.3v21.4c0,4.1,3.4,7.5,7.5,7.5h296.5c4.1,0,7.5-3.4,7.5-7.5
				s-3.4-7.5-7.5-7.5h-289v-13.9h416.2V497h-93c-4.1,0-7.5,3.4-7.5,7.5s3.4,7.5,7.5,7.5h100.5c4.1,0,7.5-3.4,7.5-7.5v-21.4h19.3
				c4.1,0,7.5-3.4,7.5-7.5V444C505.9,430.6,495,419.7,481.6,419.7z M205.8,305.1c0-6.1,5-11.2,11.2-11.2H295c6.1,0,11.2,5,11.2,11.2
				s-5,11.2-11.2,11.2H217C210.8,316.3,205.8,311.3,205.8,305.1z M280.7,331.3v44.6h-49.5v-44.6H280.7z M352.9,419.7H159.1v-13
				c0-8.7,7.1-15.8,15.8-15.8h162.2c8.7,0,15.8,7.1,15.8,15.8V419.7z"/>
		</g>
	</g>
	<g>
		<g>
			<linearGradient id="SVGID_2_" gradientUnits="userSpaceOnUse" x1="272.4995" y1="452.1" x2="334.4995" y2="452.1">
				<stop  offset="0" style="stop-color:#FFE512"/>
				<stop  offset="1" style="stop-color:#FFA221"/>
			</linearGradient>
			<path class="st1" d="M327,444.6h-47c-4.1,0-7.5,3.4-7.5,7.5s3.4,7.5,7.5,7.5h47c4.1,0,7.5-3.4,7.5-7.5S331.1,444.6,327,444.6z"/>
		</g>
	</g>
	<g>
		<g>
			<linearGradient id="SVGID_3_" gradientUnits="userSpaceOnUse" x1="100.0724" y1="452.0621" x2="184.5006" y2="452.0621">
				<stop  offset="0" style="stop-color:#FFE512"/>
				<stop  offset="1" style="stop-color:#FFA221"/>
			</linearGradient>
			<path class="st2" d="M177,444.6c-23.2-0.1-45.9-0.1-69.5,0c-4.1,0-7.5,3.4-7.5,7.5c0,4.1,3.4,7.5,7.5,7.5c0,0,0,0,0,0
				c23.6-0.1,46.2-0.1,69.4,0c0,0,0,0,0,0c4.1,0,7.5-3.3,7.5-7.5C184.5,448,181.2,444.6,177,444.6z"/>
		</g>
	</g>
	<g>
		<g>
			<linearGradient id="SVGID_4_" gradientUnits="userSpaceOnUse" x1="257.4995" y1="89.007" x2="325.4055" y2="89.007">
				<stop  offset="0" style="stop-color:#FFE512"/>
				<stop  offset="1" style="stop-color:#FFA221"/>
			</linearGradient>
			<path class="st3" d="M291.5,55.1c-18.7,0-34,15.2-34,34s15.2,34,34,34c18.7,0,34-15.2,34-34S310.2,55.1,291.5,55.1z M291.5,108
				c-10.5,0-19-8.5-19-19s8.5-19,19-19s19,8.5,19,19S301.9,108,291.5,108z"/>
		</g>
	</g>
</g>
</svg>
