<?xml version="1.0" encoding="utf-8"?>
<!-- Generator: Adobe Illustrator 22.0.0, SVG Export Plug-In . SVG Version: 6.00 Build 0)  -->
<svg version="1.1" id="Layer_1" xmlns="http://www.w3.org/2000/svg" xmlns:xlink="http://www.w3.org/1999/xlink" x="0px" y="0px"
	 viewBox="0 0 512 512" style="enable-background:new 0 0 512 512;" xml:space="preserve">
<style type="text/css">
	.st0{fill:url(#SVGID_1_);}
	.st1{fill:url(#SVGID_2_);}
	.st2{fill:url(#SVGID_3_);}
	.st3{fill:url(#SVGID_4_);}
	.st4{fill:url(#SVGID_5_);}
</style>
<g>
	<linearGradient id="SVGID_1_" gradientUnits="userSpaceOnUse" x1="21.9554" y1="246.7207" x2="512.0007" y2="246.7207">
		<stop  offset="0" style="stop-color:#FFE512"/>
		<stop  offset="1" style="stop-color:#FFA221"/>
	</linearGradient>
	<path class="st0" d="M501.4,17.8c-0.9-3.5-3.7-6.3-7.2-7.2C412.5-10.4,326.6,0,252.3,39.9c-16.3,8.8-31.8,18.8-46.2,30
		c-41.3-14.7-87.3-4.6-118.6,26.7l-62.6,62.6c-3.9,3.9-3.9,10.2,0,14.1L94.5,243c0,0,0,0,0,0l9,9l-8.3,60.7
		c-0.4,3.1,0.6,6.2,2.8,8.4l7.3,7.3l-59.7,60.1c-3.9,3.9-3.9,10.3,0,14.1c3.9,3.9,10.3,3.9,14.1,0l59.7-60.1l50,50l-84.2,83.8
		c-3.9,3.9-3.9,10.2,0,14.1c2,2,4.5,2.9,7.1,2.9c2.6,0,5.1-1,7.1-2.9l84.2-83.9l7.3,7.3c1.9,1.9,4.4,2.9,7.1,2.9
		c0.4,0,0.9,0,1.4-0.1l60.7-8.3l9,9c0,0,0,0,0,0l69.6,69.6c2,2,4.5,2.9,7.1,2.9c2.6,0,5.1-1,7.1-2.9l62.6-62.6
		c31.3-31.3,41.5-77.3,26.7-118.6c11.2-14.4,21.2-29.9,30-46.2C512,185.4,522.4,99.5,501.4,17.8z M97.4,217.6l-51.3-51.3l55.5-55.5
		c22.8-22.9,55.2-32.1,85.9-25.4C147.5,121.2,116.5,166.4,97.4,217.6z M201.5,396.3l-85.8-85.8l5.5-40.7l121,121L201.5,396.3z
		 M401.2,410.4l-55.5,55.5l-51.3-51.3c51.2-19.1,96.4-50,132.3-90.1C433.2,355.2,424,387.5,401.2,410.4z M279.9,398.5l-1.2,0.4
		L113.1,233.3l0.4-1.2C165.8,80,327.5-8.5,483.4,28.6C520.5,184.5,432,346.2,279.9,398.5z"/>
	<linearGradient id="SVGID_2_" gradientUnits="userSpaceOnUse" x1="231.3733" y1="211.8237" x2="402.4154" y2="211.8237">
		<stop  offset="0" style="stop-color:#FFE512"/>
		<stop  offset="1" style="stop-color:#FFA221"/>
	</linearGradient>
	<path class="st1" d="M389.8,109.9l-131.3,35.2c-3.4,0.9-6.1,3.6-7.1,7.1c-0.9,3.4,0.1,7.1,2.6,9.7l19.5,19.5l-39.3,39.3
		c-3.9,3.9-3.9,10.2,0,14.1c3.9,3.9,10.2,3.9,14.1,0l46.4-46.4c3.9-3.9,3.9-10.2,0-14.1l-14.3-14.3l97.8-26.2l-26.2,97.8l-14.3-14.3
		c-1.9-1.9-4.4-2.9-7.1-2.9s-5.2,1.1-7.1,2.9L243.8,297c-3.9,3.9-3.9,10.2,0,14.1c2,2,4.5,2.9,7.1,2.9s5.1-1,7.1-2.9l72.7-72.7
		l19.5,19.5c2.5,2.5,6.2,3.5,9.7,2.6c3.5-0.9,6.1-3.6,7.1-7.1l35.2-131.3c0.9-3.4-0.1-7.1-2.6-9.7S393.3,109,389.8,109.9z"/>
	<linearGradient id="SVGID_3_" gradientUnits="userSpaceOnUse" x1="-7.041561e-04" y1="462.5413" x2="98.9173" y2="462.5413">
		<stop  offset="0" style="stop-color:#FFE512"/>
		<stop  offset="1" style="stop-color:#FFA221"/>
	</linearGradient>
	<path class="st2" d="M96,416c-3.9-3.9-10.2-3.9-14.1,0L2.9,494.9c-3.9,3.9-3.9,10.2,0,14.1c2,2,4.5,2.9,7.1,2.9s5.1-1,7.1-2.9
		L96,430.2C99.9,426.3,99.9,419.9,96,416z"/>
	<linearGradient id="SVGID_4_" gradientUnits="userSpaceOnUse" x1="15.1712" y1="423.0784" x2="35.1712" y2="423.0784">
		<stop  offset="0" style="stop-color:#FFE512"/>
		<stop  offset="1" style="stop-color:#FFA221"/>
	</linearGradient>
	<path class="st3" d="M25.2,433.1c2.6,0,5.2-1.1,7.1-2.9c1.9-1.9,2.9-4.4,2.9-7.1c0-2.6-1.1-5.2-2.9-7.1c-1.9-1.9-4.4-2.9-7.1-2.9
		c-2.6,0-5.2,1.1-7.1,2.9c-1.9,1.9-2.9,4.4-2.9,7.1c0,2.6,1.1,5.2,2.9,7.1C20,432,22.5,433.1,25.2,433.1z"/>
	<linearGradient id="SVGID_5_" gradientUnits="userSpaceOnUse" x1="198.0209" y1="260.9603" x2="218.1092" y2="260.9603">
		<stop  offset="0" style="stop-color:#FFE512"/>
		<stop  offset="1" style="stop-color:#FFA221"/>
	</linearGradient>
	<path class="st4" d="M201.4,253.5L201.4,253.5c-4.2,3.8-4.5,10.1-0.8,14.2c2,2.2,4.7,3.3,7.4,3.3c2.4,0,4.8-0.8,6.7-2.6l0.1-0.1
		c4.1-3.7,4.5-10,0.8-14.1C211.9,250.1,205.5,249.8,201.4,253.5z"/>
</g>
</svg>
