<?xml version="1.0" encoding="utf-8"?>
<!-- Generator: Adobe Illustrator 22.0.0, SVG Export Plug-In . SVG Version: 6.00 Build 0)  -->
<svg version="1.1" id="Layer_1" xmlns="http://www.w3.org/2000/svg" xmlns:xlink="http://www.w3.org/1999/xlink" x="0px" y="0px"
	 viewBox="0 0 340.3 512" style="enable-background:new 0 0 340.3 512;" xml:space="preserve">
<style type="text/css">
	.st0{fill:url(#SVGID_1_);}
	.st1{fill:url(#SVGID_2_);}
	.st2{fill:url(#SVGID_3_);}
	.st3{fill:url(#SVGID_4_);}
	.st4{fill:url(#SVGID_5_);}
</style>
<g>
	<linearGradient id="SVGID_1_" gradientUnits="userSpaceOnUse" x1="0" y1="256" x2="340.25" y2="256">
		<stop  offset="0" style="stop-color:#FFE512"/>
		<stop  offset="1" style="stop-color:#FFA221"/>
	</linearGradient>
	<path class="st0" d="M290.2,172H285v-57C285,51.6,233.4,0,170,0S55,51.6,55,115v57h-4.7c-27.6,0-50,22.4-50,50L0,502
		c0,5.5,4.5,10,10,10h320c5.5,0,10-4.5,10-10l0.3-280C340.3,194.4,317.8,172,290.2,172z M75,115c0-52.4,42.6-95,95-95s95,42.6,95,95
		v57h-30v-57c0-19.8-6.7-36.5-19.5-48.3C203.9,55.9,187.7,50,170,50s-33.9,5.9-45.5,16.7C111.7,78.5,105,95.2,105,115v57H75V115z
		 M215,115v57h-90v-57c0-33.2,24.2-45,45-45S215,81.8,215,115z M320,492H20v-20h300V492z M320,412H210c-5.5,0-10,4.5-10,10
		s4.5,10,10,10h110v20H20v-20h110c5.5,0,10-4.5,10-10s-4.5-10-10-10H20v-20h300V412z M320.3,372h-300V222c0-16.6,13.5-30,30-30
		h239.9c16.6,0,30,13.5,30,30V372z"/>
	<linearGradient id="SVGID_2_" gradientUnits="userSpaceOnUse" x1="48.3359" y1="287.7324" x2="113.9688" y2="287.7324">
		<stop  offset="0" style="stop-color:#FFE512"/>
		<stop  offset="1" style="stop-color:#FFA221"/>
	</linearGradient>
	<path class="st1" d="M102.8,285.2c-2.9-2.5-6.3-4.6-10-6.5c-5.7-3-21.2-6.3-21.2-14.6c0-2.2,1.1-4.1,3.3-5.7
		c5.8-4,15.6-2.7,21.5,0.2c4.6,2.2,9.8,4,12.9-1.3c1.5-2.5,2.2-5,2.2-7.3c0-5.7-6-8.9-10.8-10.1c-5.1-1.3-10.5-2-15.8-2
		c-9.4,0-17.5,2.3-24.2,7c-6.7,4.7-10,11.7-10,21.2c0,16.3,14.2,25,27.5,30.8c5.4,2.4,14.9,6.6,14.9,13.8c0,9.9-14.6,9.9-20.9,7.2
		c-4.9-2.1-9.3-8.8-14.8-8.8c-5.3,0-9.1,6.5-9.1,11.2c0,4.5,3.2,8.5,9.6,12s13.9,5.3,22.6,5.3c17.4,0,33.4-10.4,33.4-29.1
		C114,298.4,109.6,290.9,102.8,285.2z"/>
	<linearGradient id="SVGID_3_" gradientUnits="userSpaceOnUse" x1="235.6055" y1="287.4629" x2="292.9492" y2="287.4629">
		<stop  offset="0" style="stop-color:#FFE512"/>
		<stop  offset="1" style="stop-color:#FFA221"/>
	</linearGradient>
	<path class="st2" d="M286.9,318.1h-30.5v-73.3c0-5-6.6-6.3-10.4-6.3c-3.9,0-10.4,1.2-10.4,6.3v85c0,4.7,5.2,6.4,9.1,6.4h42.2
		c4.5,0,6-5.4,6-9.1C292.9,323.6,291.5,318.1,286.9,318.1z"/>
	<linearGradient id="SVGID_4_" gradientUnits="userSpaceOnUse" x1="160" y1="422" x2="180" y2="422">
		<stop  offset="0" style="stop-color:#FFE512"/>
		<stop  offset="1" style="stop-color:#FFA221"/>
	</linearGradient>
	<path class="st3" d="M170,432c5.5,0,10-4.5,10-10s-4.5-10-10-10s-10,4.5-10,10S164.5,432,170,432z"/>
	<linearGradient id="SVGID_5_" gradientUnits="userSpaceOnUse" x1="139.3359" y1="287.7324" x2="204.9688" y2="287.7324">
		<stop  offset="0" style="stop-color:#FFE512"/>
		<stop  offset="1" style="stop-color:#FFA221"/>
	</linearGradient>
	<path class="st4" d="M193.8,285.2c-2.9-2.5-6.3-4.6-10-6.5c-5.7-3-21.2-6.3-21.2-14.6c0-2.2,1.1-4.1,3.3-5.7
		c5.8-4,15.6-2.7,21.5,0.2c4.6,2.2,9.8,4,12.9-1.3c1.5-2.5,2.2-5,2.2-7.3c0-5.7-6-8.9-10.8-10.1c-5.1-1.3-10.5-2-15.8-2
		c-9.4,0-17.5,2.3-24.2,7c-6.7,4.7-10,11.7-10,21.2c0,16.3,14.2,25,27.5,30.8c5.4,2.4,14.9,6.6,14.9,13.8c0,9.9-14.6,9.9-20.9,7.2
		c-4.9-2.1-9.3-8.8-14.8-8.8c-5.3,0-9.1,6.5-9.1,11.2c0,4.5,3.2,8.5,9.6,12s13.9,5.3,22.6,5.3c17.4,0,33.4-10.4,33.4-29.1
		C205,298.4,200.6,290.9,193.8,285.2z"/>
</g>
</svg>
