<?xml version="1.0" encoding="utf-8"?>
<!-- Generator: Adobe Illustrator 22.0.0, SVG Export Plug-In . SVG Version: 6.00 Build 0)  -->
<svg version="1.1" id="Layer_1" xmlns="http://www.w3.org/2000/svg" xmlns:xlink="http://www.w3.org/1999/xlink" x="0px" y="0px"
	 viewBox="0 0 512 512" style="enable-background:new 0 0 512 512;" xml:space="preserve">
<style type="text/css">
	.st0{fill:url(#SVGID_1_);}
	.st1{fill:url(#SVGID_2_);}
</style>
<linearGradient id="SVGID_1_" gradientUnits="userSpaceOnUse" x1="106" y1="410" x2="126" y2="410">
	<stop  offset="0" style="stop-color:#FFE512"/>
	<stop  offset="1" style="stop-color:#FFA221"/>
</linearGradient>
<path class="st0" d="M123.1,417.1c1.9-1.9,2.9-4.4,2.9-7.1s-1.1-5.2-2.9-7.1s-4.4-2.9-7.1-2.9s-5.2,1.1-7.1,2.9s-2.9,4.4-2.9,7.1
	s1.1,5.2,2.9,7.1s4.4,2.9,7.1,2.9S121.2,418.9,123.1,417.1z"/>
<linearGradient id="SVGID_2_" gradientUnits="userSpaceOnUse" x1="0" y1="256" x2="512" y2="256">
	<stop  offset="0" style="stop-color:#FFE512"/>
	<stop  offset="1" style="stop-color:#FFA221"/>
</linearGradient>
<path class="st1" d="M502,308h-44v-28.8c0-53.4-43.4-96.8-96.8-96.8h-34.6L266,103.7c0-0.1,0-0.2,0-0.3V10c0-5.5-4.5-10-10-10
	s-10,4.5-10,10v78.8c-24.6-1-47.6-11-65.1-28.5l-7.3-7.2V10c0-5.5-4.5-10-10-10s-10,4.5-10,10v44.7L99.4,156.3
	c0,0.1-0.1,0.1-0.1,0.2c-13.2,24.9-4.8,55.9,19.2,70.8L248.8,308H198c-5.5,0-10,4.5-10,10v82h-20c-5.5,0-10,4.5-10,10s4.5,10,10,10
	h324v72H20v-72h54.9c5.5,0,10-4.5,10-10s-4.5-10-10-10H10c-5.5,0-10,4.5-10,10v92c0,5.5,4.5,10,10,10h492c5.5,0,10-4.5,10-10V318
	C512,312.5,507.5,308,502,308z M244.7,108.8l17.5,22.8c-38.6-1.4-75.8-15.2-105.8-39.6l9.7-18.2l0.7,0.7
	C187.8,95.4,215.3,107.4,244.7,108.8z M146.8,109.9c34.5,26.9,77,41.6,121,41.7h9.8l4.7,6.1l-22.8,22.8c-3.9,3.9-3.9,10.2,0,14.1
	c2,2,4.5,2.9,7.1,2.9s5.1-1,7.1-2.9l21-21l13.7,17.7L289,210.8c-3.9,3.9-3.9,10.2,0,14.1c2,2,4.5,2.9,7.1,2.9s5.1-1,7.1-2.9
	l22.6-22.6h22l-19.3,19.3c-3.9,3.9-3.9,10.2,0,14.1c2,2,4.5,2.9,7.1,2.9s5.1-1,7.1-2.9l31.5-31.5c0.2-0.2,0.4-0.5,0.6-0.7
	c33.8,6.1,60,34.3,63,69.1H297.8L121.3,157.8L146.8,109.9z M129,210.2c-11.7-7.3-17.5-20.7-15.5-33.7l176,114.6
	c1.6,1.1,3.5,1.6,5.5,1.6H438V308H286.8L129,210.2z M208,400v-72h284v72H208z"/>
</svg>
