<?xml version="1.0" encoding="utf-8"?>
<!-- Generator: Adobe Illustrator 22.0.0, SVG Export Plug-In . SVG Version: 6.00 Build 0)  -->
<svg version="1.1" id="Layer_1" xmlns="http://www.w3.org/2000/svg" xmlns:xlink="http://www.w3.org/1999/xlink" x="0px" y="0px"
	 viewBox="0 0 512 512" style="enable-background:new 0 0 512 512;" xml:space="preserve">
<style type="text/css">
	.st0{fill:url(#SVGID_1_);}
	.st1{fill:url(#SVGID_2_);}
	.st2{fill:url(#SVGID_3_);}
</style>
<g>
	<linearGradient id="SVGID_1_" gradientUnits="userSpaceOnUse" x1="194.7947" y1="392.7802" x2="214.6971" y2="392.7802">
		<stop  offset="0" style="stop-color:#FFE512"/>
		<stop  offset="1" style="stop-color:#FFA221"/>
	</linearGradient>
	<path class="st0" d="M204.7,402.7c2.6,0,5.2-1.1,7-2.9c1.9-1.9,2.9-4.4,2.9-7s-1.1-5.2-2.9-7c-1.9-1.9-4.4-2.9-7-2.9
		c-2.6,0-5.2,1.1-7,2.9c-1.9,1.9-2.9,4.4-2.9,7s1.1,5.2,2.9,7C199.6,401.7,202.1,402.7,204.7,402.7z"/>
	<linearGradient id="SVGID_2_" gradientUnits="userSpaceOnUse" x1="1.002" y1="255.7492" x2="512.0022" y2="255.7492">
		<stop  offset="0" style="stop-color:#FFE512"/>
		<stop  offset="1" style="stop-color:#FFA221"/>
	</linearGradient>
	<path class="st1" d="M501.3,245.8h-7.8l6.1-6.1c8-8,12.5-18.7,12.5-30.1c0-11.4-4.4-22.1-12.5-30.1c-16.6-16.6-43.6-16.6-60.2,0
		s-16.6,43.6,0,60.2l6.1,6.1h-7.8c-0.9,0-1.7,0.1-2.5,0.3c0,0,0,0,0,0c-0.2,0-1.4,0.2-2.1,0.4c-37.3,14.7-75.9,24.5-114.9,29.6
		v-97.3c61.2-5.1,109.5-56.5,109.5-119V34.8c0-17.6-13.8-32.5-31.3-33.7c-9.4-0.7-18.4,2.5-25.3,8.9c-7,6.5-11,15.8-11,25.5v24.2
		c0,29.3-24.7,51.5-57.5,51.5h-7.2c5.7-7.9,9.1-17.6,9.1-28.1v-6.9c0-26.4-21.5-48-48-48c-26.4,0-48,21.5-48,48v6.9
		c0,10.5,3.4,20.2,9.1,28.1h-7.2c-0.3,0-0.6,0-0.9,0c-14.7,1.3-28.8-3.4-39.7-13.3C159.2,88.1,153,74.2,153,59.7V35.5
		c0-9.7-4-19-11-25.5c-6.9-6.4-15.9-9.6-25.3-8.9C99.1,2.4,85.3,17.2,85.3,34.8v24.9c0,62.5,48.3,113.9,109.5,119V276
		c-38.9-5-77.4-14.9-114.6-29.5l-2.1-0.4c0,0,0,0,0,0c-0.9-0.2-1.8-0.4-2.7-0.4h-7.8l6.1-6.1c8-8,12.5-18.7,12.5-30.1
		c0-11.4-4.4-22.1-12.5-30.1C57,163,30,163,13.4,179.6s-16.6,43.6,0,60.2l6.1,6.1h-7.8c-5.5,0-10,4.5-10,10v244.8
		c0,5.5,4.5,9.9,10,9.9h63.7c5.5,0,9.9-4.5,9.9-9.9V329.3c51.9,18.8,106,28.8,161.2,29.9v115.5c0,8.8-7.1,15.9-15.9,15.9
		c-8.8,0-15.9-7.1-15.9-15.9v-42.1c0-5.5-4.5-10-10-10c-5.5,0-9.9,4.5-9.9,10v42.1c0,19.8,16.1,35.8,35.8,35.8s35.8-16.1,35.8-35.8
		v-19.6c4.8,2.4,10.2,3.7,15.9,3.7c19.8,0,35.8-16.1,35.8-35.8v-67.5c37.3-4.6,73.9-13.4,109.5-26.2v53.9c0,5.5,4.5,10,10,10
		c5.5,0,9.9-4.5,9.9-10V265.7h43.8v224.9h-43.8v-29.9c0-5.5-4.5-10-9.9-10c-5.5,0-10,4.5-10,10v39.8c0,5.5,4.5,9.9,10,9.9h63.7
		c5.5,0,9.9-4.5,9.9-9.9V255.7C511.2,250.3,506.8,245.8,501.3,245.8z M453.4,193.6c4.4-4.4,10.2-6.6,16-6.6s11.6,2.2,16,6.6
		c8.8,8.8,8.8,23.2,0,32l-16,16l-16-16c-4.3-4.3-6.6-10-6.6-16C446.8,203.6,449.2,197.9,453.4,193.6z M27.5,193.6
		c8.8-8.8,23.2-8.8,32,0c8.8,8.8,8.8,23.2,0,32l-16,16l-16-16c-4.3-4.3-6.6-10-6.6-16C20.9,203.6,23.2,197.9,27.5,193.6z
		 M228.4,76.2c0-15.5,12.6-28.1,28.1-28.1c15.5,0,28.1,12.6,28.1,28.1v6.9c0,15.5-12.6,28.1-28.1,28.1c-15.5,0-28.1-12.6-28.1-28.1
		V76.2z M105.2,59.7V34.8c0-7.3,5.7-13.4,12.9-13.9c3.8-0.3,7.5,1,10.3,3.6c3,2.8,4.7,6.8,4.7,10.9v24.2c0,20.1,8.5,39.3,23.4,52.9
		c14.9,13.6,34.2,20.2,54.4,18.5h91.6c20.5,0,39.8-7,54.1-19.8c15-13.3,23.2-31.6,23.2-51.6V35.5c0-4.2,1.7-8.2,4.7-10.9
		c2.8-2.6,6.5-3.9,10.3-3.6c7.2,0.5,12.9,6.6,12.9,13.9v24.9c0,54.9-44.6,99.5-99.5,99.5c-5.5,0-9.9,4.5-9.9,10v68.7h-83.6v-68.7
		c0-5.5-4.5-10-10-10C149.9,159.2,105.2,114.6,105.2,59.7z M214.7,257.7h83.6v20.5c-27.8,2.4-55.8,2.4-83.6,0V257.7z M65.4,490.6
		H21.6V265.7h43.8V490.6z M298.3,423c0,8.8-7.1,15.9-15.9,15.9s-15.9-7.1-15.9-15.9v-63.8c10.7-0.2,21.3-0.7,31.8-1.6V423z
		 M257.8,339.5c-0.4-0.1-0.9-0.1-1.3-0.1c-0.4,0-0.9,0-1.3,0.1c-57.5-0.2-115-10.6-169.8-31.4v-38.3c55,19.9,112.5,30,171.2,30h0.1
		c58.6,0,116.1-10.1,171-30V308C372.8,328.9,315.3,339.3,257.8,339.5z"/>
	<linearGradient id="SVGID_3_" gradientUnits="userSpaceOnUse" x1="427.6516" y1="421.439" x2="447.5541" y2="421.439">
		<stop  offset="0" style="stop-color:#FFE512"/>
		<stop  offset="1" style="stop-color:#FFA221"/>
	</linearGradient>
	<path class="st2" d="M437.6,431.4c2.6,0,5.2-1.1,7-2.9c1.9-1.9,2.9-4.4,2.9-7c0-2.6-1.1-5.2-2.9-7c-1.8-1.9-4.4-2.9-7-2.9
		c-2.6,0-5.2,1.1-7,2.9c-1.9,1.9-2.9,4.4-2.9,7c0,2.6,1.1,5.2,2.9,7C432.4,430.3,435,431.4,437.6,431.4z"/>
</g>
</svg>
